<svg xmlns="http://www.w3.org/2000/svg" xmlns:xlink="http://www.w3.org/1999/xlink" width="160" zoomAndPan="magnify" viewBox="0 0 120 30.000001" height="40" preserveAspectRatio="xMidYMid meet" version="1.0"><defs><g/><clipPath id="40828543df"><path d="M 1.933594 0 L 118.0625 0 L 118.0625 29.03125 L 1.933594 29.03125 Z M 1.933594 0 " clip-rule="nonzero"/></clipPath><clipPath id="c27f4b41c1"><path d="M 85.273438 7.191406 L 87.765625 7.191406 L 87.765625 9.789062 L 85.273438 9.789062 Z M 85.273438 7.191406 " clip-rule="nonzero"/></clipPath><clipPath id="b1e2e2f8b1"><path d="M 87.765625 8.074219 C 87.433594 9.46875 87.25 9.582031 87.066406 9.652344 C 86.882812 9.726562 86.664062 9.800781 86.441406 9.765625 C 86.148438 9.691406 85.597656 9.433594 85.414062 9.140625 C 85.230469 8.847656 85.265625 8.257812 85.339844 7.925781 C 85.414062 7.742188 85.558594 7.597656 85.742188 7.449219 C 85.890625 7.339844 86.074219 7.230469 86.292969 7.191406 C 86.589844 7.191406 87.433594 7.558594 87.433594 7.558594 " clip-rule="nonzero"/></clipPath></defs><g clip-path="url(#40828543df)"><path fill="#ffffff" d="M 1.933594 0 L 118.066406 0 L 118.066406 29.03125 L 1.933594 29.03125 Z M 1.933594 0 " fill-opacity="1" fill-rule="nonzero"/><path fill="#000000" d="M 1.933594 0 L 118.066406 0 L 118.066406 29.03125 L 1.933594 29.03125 Z M 1.933594 0 " fill-opacity="1" fill-rule="nonzero"/></g><g fill="#ffffff" fill-opacity="1"><g transform="translate(35.408176, 27.679655)"><g><path d="M 3.75 -0.796875 C 3.601562 -0.523438 3.394531 -0.316406 3.125 -0.171875 C 2.863281 -0.0234375 2.5625 0.046875 2.21875 0.046875 C 1.832031 0.046875 1.5 -0.03125 1.21875 -0.1875 C 0.9375 -0.351562 0.71875 -0.585938 0.5625 -0.890625 C 0.414062 -1.203125 0.34375 -1.566406 0.34375 -1.984375 C 0.34375 -2.421875 0.425781 -2.800781 0.59375 -3.125 C 0.757812 -3.457031 0.988281 -3.71875 1.28125 -3.90625 C 1.582031 -4.09375 1.925781 -4.1875 2.3125 -4.1875 C 2.632812 -4.1875 2.921875 -4.117188 3.171875 -3.984375 C 3.421875 -3.859375 3.617188 -3.664062 3.765625 -3.40625 L 3.40625 -3.140625 C 3.175781 -3.554688 2.8125 -3.765625 2.3125 -3.765625 C 2.007812 -3.765625 1.742188 -3.6875 1.515625 -3.53125 C 1.296875 -3.382812 1.117188 -3.175781 0.984375 -2.90625 C 0.859375 -2.644531 0.796875 -2.335938 0.796875 -1.984375 C 0.796875 -1.472656 0.921875 -1.070312 1.171875 -0.78125 C 1.421875 -0.5 1.769531 -0.359375 2.21875 -0.359375 C 2.769531 -0.359375 3.164062 -0.585938 3.40625 -1.046875 Z M 3.75 -0.796875 "/></g></g></g><g fill="#ffffff" fill-opacity="1"><g transform="translate(40.860474, 27.679655)"><g><path d="M 2.203125 0.046875 C 1.828125 0.046875 1.5 -0.03125 1.21875 -0.1875 C 0.9375 -0.351562 0.71875 -0.585938 0.5625 -0.890625 C 0.414062 -1.191406 0.34375 -1.554688 0.34375 -1.984375 C 0.34375 -2.421875 0.425781 -2.800781 0.59375 -3.125 C 0.757812 -3.457031 0.988281 -3.71875 1.28125 -3.90625 C 1.582031 -4.09375 1.925781 -4.1875 2.3125 -4.1875 C 2.675781 -4.1875 2.992188 -4.097656 3.265625 -3.921875 C 3.535156 -3.753906 3.742188 -3.519531 3.890625 -3.21875 C 4.046875 -2.914062 4.125 -2.554688 4.125 -2.140625 C 4.125 -1.691406 4.039062 -1.304688 3.875 -0.984375 C 3.707031 -0.660156 3.476562 -0.40625 3.1875 -0.21875 C 2.90625 -0.0390625 2.578125 0.046875 2.203125 0.046875 Z M 2.203125 -0.359375 C 2.492188 -0.359375 2.75 -0.429688 2.96875 -0.578125 C 3.1875 -0.722656 3.359375 -0.925781 3.484375 -1.1875 C 3.609375 -1.457031 3.671875 -1.78125 3.671875 -2.15625 C 3.671875 -2.488281 3.613281 -2.773438 3.5 -3.015625 C 3.394531 -3.253906 3.238281 -3.4375 3.03125 -3.5625 C 2.832031 -3.695312 2.597656 -3.765625 2.328125 -3.765625 C 2.023438 -3.765625 1.757812 -3.691406 1.53125 -3.546875 C 1.300781 -3.398438 1.117188 -3.191406 0.984375 -2.921875 C 0.859375 -2.648438 0.796875 -2.335938 0.796875 -1.984375 C 0.796875 -1.460938 0.921875 -1.0625 1.171875 -0.78125 C 1.421875 -0.5 1.765625 -0.359375 2.203125 -0.359375 Z M 2.203125 -0.359375 "/></g></g></g><g fill="#ffffff" fill-opacity="1"><g transform="translate(47.015352, 27.679655)"><g><path d="M 0.484375 0 L 0.484375 -4.125 L 0.921875 -4.125 L 0.921875 -0.390625 L 2.859375 -0.390625 L 2.8125 0 Z M 0.484375 0 "/></g></g></g><g fill="#ffffff" fill-opacity="1"><g transform="translate(51.515382, 27.679655)"><g><path d="M 0.484375 0 L 0.484375 -4.125 L 0.921875 -4.125 L 0.921875 -0.390625 L 2.859375 -0.390625 L 2.8125 0 Z M 0.484375 0 "/></g></g></g><g fill="#ffffff" fill-opacity="1"><g transform="translate(56.015412, 27.679655)"><g><path d="M 2.859375 -3.75 L 0.921875 -3.75 L 0.921875 -2.296875 L 2.8125 -2.296875 L 2.8125 -1.90625 L 0.921875 -1.90625 L 0.921875 -0.390625 L 2.953125 -0.390625 L 2.90625 0 L 0.484375 0 L 0.484375 -4.125 L 2.859375 -4.125 Z M 2.859375 -3.75 "/></g></g></g><g fill="#ffffff" fill-opacity="1"><g transform="translate(60.852216, 27.679655)"><g><path d="M 3.75 -0.796875 C 3.601562 -0.523438 3.394531 -0.316406 3.125 -0.171875 C 2.863281 -0.0234375 2.5625 0.046875 2.21875 0.046875 C 1.832031 0.046875 1.5 -0.03125 1.21875 -0.1875 C 0.9375 -0.351562 0.71875 -0.585938 0.5625 -0.890625 C 0.414062 -1.203125 0.34375 -1.566406 0.34375 -1.984375 C 0.34375 -2.421875 0.425781 -2.800781 0.59375 -3.125 C 0.757812 -3.457031 0.988281 -3.71875 1.28125 -3.90625 C 1.582031 -4.09375 1.925781 -4.1875 2.3125 -4.1875 C 2.632812 -4.1875 2.921875 -4.117188 3.171875 -3.984375 C 3.421875 -3.859375 3.617188 -3.664062 3.765625 -3.40625 L 3.40625 -3.140625 C 3.175781 -3.554688 2.8125 -3.765625 2.3125 -3.765625 C 2.007812 -3.765625 1.742188 -3.6875 1.515625 -3.53125 C 1.296875 -3.382812 1.117188 -3.175781 0.984375 -2.90625 C 0.859375 -2.644531 0.796875 -2.335938 0.796875 -1.984375 C 0.796875 -1.472656 0.921875 -1.070312 1.171875 -0.78125 C 1.421875 -0.5 1.769531 -0.359375 2.21875 -0.359375 C 2.769531 -0.359375 3.164062 -0.585938 3.40625 -1.046875 Z M 3.75 -0.796875 "/></g></g></g><g fill="#ffffff" fill-opacity="1"><g transform="translate(66.304514, 27.679655)"><g><path d="M 3.171875 -4.125 L 3.140625 -3.734375 L 1.8125 -3.734375 L 1.8125 0 L 1.359375 0 L 1.359375 -3.734375 L 0.015625 -3.734375 L 0.015625 -4.125 Z M 3.171875 -4.125 "/></g></g></g><g fill="#ffffff" fill-opacity="1"><g transform="translate(71.164545, 27.679655)"><g><path d="M 0.484375 0 L 0.484375 -4.125 L 0.921875 -4.125 L 0.921875 0 Z M 0.484375 0 "/></g></g></g><g fill="#ffffff" fill-opacity="1"><g transform="translate(74.253587, 27.679655)"><g><path d="M 2.203125 0.046875 C 1.828125 0.046875 1.5 -0.03125 1.21875 -0.1875 C 0.9375 -0.351562 0.71875 -0.585938 0.5625 -0.890625 C 0.414062 -1.191406 0.34375 -1.554688 0.34375 -1.984375 C 0.34375 -2.421875 0.425781 -2.800781 0.59375 -3.125 C 0.757812 -3.457031 0.988281 -3.71875 1.28125 -3.90625 C 1.582031 -4.09375 1.925781 -4.1875 2.3125 -4.1875 C 2.675781 -4.1875 2.992188 -4.097656 3.265625 -3.921875 C 3.535156 -3.753906 3.742188 -3.519531 3.890625 -3.21875 C 4.046875 -2.914062 4.125 -2.554688 4.125 -2.140625 C 4.125 -1.691406 4.039062 -1.304688 3.875 -0.984375 C 3.707031 -0.660156 3.476562 -0.40625 3.1875 -0.21875 C 2.90625 -0.0390625 2.578125 0.046875 2.203125 0.046875 Z M 2.203125 -0.359375 C 2.492188 -0.359375 2.75 -0.429688 2.96875 -0.578125 C 3.1875 -0.722656 3.359375 -0.925781 3.484375 -1.1875 C 3.609375 -1.457031 3.671875 -1.78125 3.671875 -2.15625 C 3.671875 -2.488281 3.613281 -2.773438 3.5 -3.015625 C 3.394531 -3.253906 3.238281 -3.4375 3.03125 -3.5625 C 2.832031 -3.695312 2.597656 -3.765625 2.328125 -3.765625 C 2.023438 -3.765625 1.757812 -3.691406 1.53125 -3.546875 C 1.300781 -3.398438 1.117188 -3.191406 0.984375 -2.921875 C 0.859375 -2.648438 0.796875 -2.335938 0.796875 -1.984375 C 0.796875 -1.460938 0.921875 -1.0625 1.171875 -0.78125 C 1.421875 -0.5 1.765625 -0.359375 2.203125 -0.359375 Z M 2.203125 -0.359375 "/></g></g></g><g fill="#ffffff" fill-opacity="1"><g transform="translate(80.408464, 27.679655)"><g><path d="M 3.265625 -4.125 L 3.6875 -4.125 L 3.6875 0 L 3.3125 0 L 0.90625 -3.375 L 0.90625 0 L 0.484375 0 L 0.484375 -4.125 L 0.859375 -4.125 L 3.265625 -0.75 Z M 3.265625 -4.125 "/></g></g></g><g fill="#ffffff" fill-opacity="1"><g transform="translate(2.353885, 15.514812)"><g><path d="M 9.089844 -13.976562 C 7.5625 -13.734375 6.050781 -13.492188 4.523438 -13.25 C 3.078125 -13.011719 2.492188 -12.304688 2.332031 -10.859375 C 1.949219 -7.5 1.546875 -4.140625 1.027344 -0.804688 C 0.722656 1.085938 3.621094 1.910156 3.921875 0 C 4.164062 -1.589844 4.402344 -3.175781 4.605469 -4.765625 C 5.769531 -5.007812 6.917969 -5.128906 8.101562 -5.148438 C 10.035156 -5.167969 10.035156 -8.183594 8.101562 -8.164062 C 7.058594 -8.144531 6.03125 -8.0625 5.007812 -7.902344 C 5.027344 -7.984375 5.027344 -8.082031 5.046875 -8.183594 C 5.105469 -8.789062 5.308594 -9.511719 5.269531 -10.113281 C 5.269531 -10.195312 5.269531 -10.253906 5.289062 -10.335938 C 5.507812 -10.355469 5.75 -10.394531 5.792969 -10.414062 C 7.160156 -10.617188 8.527344 -10.839844 9.894531 -11.058594 C 11.804688 -11.359375 10.980469 -14.257812 9.089844 -13.976562 Z M 9.089844 -13.976562 "/></g></g></g><g fill="#ffffff" fill-opacity="1"><g transform="translate(14.337879, 15.514812)"><g><path d="M 10.394531 -8.808594 C 10.335938 -10.558594 10.296875 -15.140625 7.320312 -13.875 C 5.390625 -13.050781 3.921875 -10.535156 3.097656 -8.726562 C 2.011719 -6.273438 1.488281 -3.679688 1.027344 -1.066406 C 0.683594 0.84375 3.578125 1.648438 3.921875 -0.261719 C 4.101562 -1.265625 4.28125 -2.292969 4.503906 -3.296875 L 7.519531 -3.175781 C 7.5625 -2.371094 7.582031 -1.570312 7.601562 -0.785156 C 7.640625 1.167969 10.65625 1.167969 10.597656 -0.785156 C 10.535156 -3.457031 10.496094 -6.132812 10.394531 -8.808594 Z M 5.46875 -6.617188 C 5.8125 -7.5 6.253906 -8.386719 6.777344 -9.167969 C 6.957031 -9.449219 7.160156 -9.710938 7.359375 -9.953125 C 7.378906 -9.550781 7.359375 -9.148438 7.378906 -8.808594 C 7.417969 -7.941406 7.441406 -7.078125 7.460938 -6.191406 C 6.757812 -6.214844 6.050781 -6.253906 5.347656 -6.273438 C 5.390625 -6.394531 5.429688 -6.496094 5.46875 -6.617188 Z M 5.46875 -6.617188 "/></g></g></g><g fill="#ffffff" fill-opacity="1"><g transform="translate(25.959941, 15.514812)"><g><path d="M 8.847656 -5.007812 C 7.277344 -4.886719 5.730469 -4.664062 4.203125 -4.34375 C 4.464844 -6.816406 4.707031 -9.289062 4.945312 -11.761719 C 5.128906 -13.695312 2.113281 -13.695312 1.929688 -11.761719 C 1.628906 -8.625 1.308594 -5.488281 1.003906 -2.351562 C 0.90625 -1.367188 2.050781 -0.664062 2.914062 -0.90625 C 4.867188 -1.46875 6.835938 -1.828125 8.847656 -1.992188 C 10.777344 -2.132812 10.796875 -5.148438 8.847656 -5.007812 Z M 8.847656 -5.007812 "/></g></g></g><g fill="#ffffff" fill-opacity="1"><g transform="translate(37.280394, 15.514812)"><g><path d="M 8.847656 -5.007812 C 7.277344 -4.886719 5.730469 -4.664062 4.203125 -4.34375 C 4.464844 -6.816406 4.707031 -9.289062 4.945312 -11.761719 C 5.128906 -13.695312 2.113281 -13.695312 1.929688 -11.761719 C 1.628906 -8.625 1.308594 -5.488281 1.003906 -2.351562 C 0.90625 -1.367188 2.050781 -0.664062 2.914062 -0.90625 C 4.867188 -1.46875 6.835938 -1.828125 8.847656 -1.992188 C 10.777344 -2.132812 10.796875 -5.148438 8.847656 -5.007812 Z M 8.847656 -5.007812 "/></g></g></g><g fill="#ffffff" fill-opacity="1"><g transform="translate(48.600847, 15.514812)"><g><path d="M 17.089844 -10.414062 C 16.105469 -9.1875 14.539062 -7.679688 13.152344 -6.515625 C 12.347656 -8.144531 11.824219 -9.992188 11.421875 -12.125 L 18.839844 -12.125 L 18.839844 -13.574219 L 10.175781 -13.574219 L 11.5 -14.035156 C 11.28125 -14.800781 10.71875 -16.007812 10.15625 -16.910156 L 8.667969 -16.449219 C 9.167969 -15.5625 9.691406 -14.355469 9.914062 -13.574219 L 1.285156 -13.574219 L 1.285156 -12.125 L 8.644531 -12.125 C 6.835938 -9.710938 3.839844 -7.417969 0.765625 -6.03125 C 1.003906 -5.730469 1.425781 -5.128906 1.589844 -4.765625 C 2.855469 -5.367188 4.082031 -6.09375 5.25 -6.898438 L 5.25 -1.425781 C 5.25 -0.503906 4.585938 0.0820312 4.183594 0.300781 C 4.445312 0.582031 4.847656 1.167969 4.988281 1.488281 C 5.507812 1.125 6.273438 0.84375 12.546875 -1.144531 C 12.425781 -1.488281 12.265625 -2.089844 12.207031 -2.511719 L 6.757812 -0.824219 L 6.757812 -8.082031 C 8.042969 -9.148438 9.167969 -10.316406 10.09375 -11.542969 C 11.160156 -6.03125 13.070312 -2.253906 18.296875 1.046875 C 18.480469 0.582031 18.960938 0.0390625 19.34375 -0.261719 C 16.808594 -1.75 15.082031 -3.359375 13.835938 -5.308594 C 15.300781 -6.476562 17.050781 -8.082031 18.359375 -9.511719 Z M 17.089844 -10.414062 "/></g></g></g><g fill="#ffffff" fill-opacity="1"><g transform="translate(68.708218, 15.514812)"><g><path d="M 8.847656 -5.007812 C 7.277344 -4.886719 5.730469 -4.664062 4.203125 -4.34375 C 4.464844 -6.816406 4.707031 -9.289062 4.945312 -11.761719 C 5.128906 -13.695312 2.113281 -13.695312 1.929688 -11.761719 C 1.628906 -8.625 1.308594 -5.488281 1.003906 -2.351562 C 0.90625 -1.367188 2.050781 -0.664062 2.914062 -0.90625 C 4.867188 -1.46875 6.835938 -1.828125 8.847656 -1.992188 C 10.777344 -2.132812 10.796875 -5.148438 8.847656 -5.007812 Z M 8.847656 -5.007812 "/></g></g></g><g fill="#ffffff" fill-opacity="1"><g transform="translate(80.028671, 15.514812)"><g><path d="M 11.179688 -12.789062 C 9.53125 -15.503906 5.226562 -15.84375 3.078125 -13.652344 C 0.964844 -11.84375 0.664062 -7.640625 1.265625 -5.289062 C 1.6875 -3.679688 2.753906 -1.992188 4.402344 -1.46875 C 6.113281 -0.90625 8.003906 -1.527344 9.351562 -2.632812 C 10.71875 -3.78125 11.5625 -5.449219 11.84375 -7.199219 C 12.105469 -8.929688 12.125 -11.242188 11.179688 -12.789062 Z M 7.519531 -4.964844 C 7.460938 -4.925781 7.417969 -4.886719 7.359375 -4.824219 C 6.714844 -4.28125 5.691406 -4.0625 5.007812 -4.585938 C 4.566406 -4.90625 4.363281 -5.449219 4.222656 -5.972656 C 4.023438 -6.835938 3.980469 -7.742188 4.082031 -8.625 C 4.183594 -9.429688 4.382812 -10.457031 4.847656 -11.121094 C 5.269531 -11.703125 5.972656 -12.066406 6.695312 -12.085938 C 7.941406 -12.105469 8.746094 -11.261719 8.886719 -10.09375 C 9.128906 -8.324219 8.867188 -6.253906 7.519531 -4.964844 Z M 7.519531 -4.964844 "/></g></g></g><g fill="#ffffff" fill-opacity="1"><g transform="translate(93.058249, 15.514812)"><g><path d="M 8.808594 -10.675781 C 8.003906 -8.546875 7.117188 -6.476562 6.191406 -4.402344 C 5.269531 -6.695312 4.707031 -9.210938 3.980469 -11.5 C 3.398438 -13.332031 0.484375 -12.546875 1.066406 -10.699219 C 2.171875 -7.21875 2.957031 -3.316406 4.925781 -0.222656 C 5.488281 0.683594 6.996094 0.84375 7.519531 -0.222656 C 9.070312 -3.359375 10.476562 -6.574219 11.703125 -9.871094 C 12.386719 -11.683594 9.492188 -12.46875 8.808594 -10.675781 Z M 8.808594 -10.675781 "/></g></g></g><g fill="#ffffff" fill-opacity="1"><g transform="translate(105.886746, 15.514812)"><g><path d="M 8.386719 -4.261719 C 6.996094 -4.324219 5.609375 -4.261719 4.242188 -4.140625 C 4.34375 -4.90625 4.464844 -5.671875 4.566406 -6.433594 C 5.25 -6.433594 5.933594 -6.414062 6.617188 -6.335938 C 7.441406 -6.253906 8.125 -7.078125 8.125 -7.84375 C 8.125 -8.726562 7.441406 -9.269531 6.617188 -9.351562 C 6.09375 -9.410156 5.570312 -9.429688 5.027344 -9.449219 C 5.148438 -10.214844 5.289062 -11 5.410156 -11.785156 C 6.433594 -11.785156 7.441406 -11.742188 8.464844 -11.683594 C 10.394531 -11.542969 10.394531 -14.558594 8.464844 -14.699219 C 7.019531 -14.800781 5.550781 -14.820312 4.101562 -14.757812 C 3.539062 -14.757812 3.136719 -14.476562 2.894531 -14.09375 C 2.796875 -13.933594 2.714844 -13.734375 2.675781 -13.511719 C 2.011719 -9.8125 1.46875 -6.113281 1.003906 -2.414062 C 0.863281 -1.328125 2.070312 -0.824219 2.914062 -0.945312 C 4.726562 -1.246094 6.554688 -1.328125 8.386719 -1.246094 C 10.316406 -1.167969 10.316406 -4.183594 8.386719 -4.261719 Z M 8.386719 -4.261719 "/></g></g></g><g clip-path="url(#c27f4b41c1)"><g clip-path="url(#b1e2e2f8b1)"><path fill="#e7191f" d="M 83.871094 5.722656 L 89.234375 5.722656 L 89.234375 11.234375 L 83.871094 11.234375 Z M 83.871094 5.722656 " fill-opacity="1" fill-rule="nonzero"/></g></g></svg>